# xmcd
#
# Track frame offsets:
#	150
#	18136
#	33755
#	47245
#	62008
#	80288
#	95957
#	114192
#	131760
#	145065
#	162632
#	178153
#	193310
#	209368
#	224931
#	240773
#	253638
#	267039
#
# Disc length: 3770 seconds
#
# Revision: 1
# Processed by: cddbd v1.5.2PL0 Copyright (c) Steve Scherf et al.
# Submitted via: EasyCDDAExtractor 11.5.0.1
#
DISCID=070eb812
DTITLE=Various Artist - NCT 094
DYEAR=2007
DGENRE=Country
TTITLE0=Tim McGraw - Last Dollar (Fly Away)
TTITLE1=Rascal Flatts - Stand
TTITLE2=Terri Clark - Dirty Girl
TTITLE3=Montgomery Gentry - Lucky Man
TTITLE4=Miranda Lambert - Famous In A Small Town
TTITLE5=Cole Deggs and The Lonesome - I Got More
TTITLE6=Luke Bryan - All My Friends Say
TTITLE7=Rick Trevino - Separate Ways
TTITLE8=Chris Young - You're Gonna Love Me
TTITLE9=Dusty Drake - Say Yes
TTITLE10=Jerrod Niemann - I Love Women (My Momma Can't Stand)
TTITLE11=Flynnville Train - Last Good Time
TTITLE12=John Anderson - A Woman Knows
TTITLE13=Beverley Mitchell - Heaven On Earth Down Here
TTITLE14=Bucky Covington - A Different World
TTITLE15=Zachary Hunter - Something Big (The George Strait Song)
TTITLE16=Russell Walker - Talkin' Dirty
TTITLE17=Laura Bryna - I Don't Have A Thing To Wear
EXTD=
EXTT0=
EXTT1=
EXTT2=
EXTT3=
EXTT4=
EXTT5=
EXTT6=
EXTT7=
EXTT8=
EXTT9=
EXTT10=
EXTT11=
EXTT12=
EXTT13=
EXTT14=
EXTT15=
EXTT16=
EXTT17=
PLAYORDER=
